<svg xmlns="http://www.w3.org/2000/svg" width="21" height="21" viewBox="0 0 21 21">
    <g fill="none" fill-rule="evenodd">
        <path d="M-2-2h25v25H-2z"/>
        <g fill="#FFF" fill-rule="nonzero">
            <path d="M.96.545C.96.332.818.159.64.159.464.159.32.332.32.545v20.058c0 .213.144.386.32.386h19.842c.177 0 .32-.173.32-.386 0-.213-.143-.385-.32-.385H.961V.545z"/>
            <path d="M7.908 10.351h1.846c.177 0 .32.173.32.386v9.866c0 .213-.143.386-.32.386H7.908c-.176 0-.32-.173-.32-.386v-9.866c0-.213.144-.386.32-.386zm1.526.772H8.228v9.095h1.206v-9.095zM3.69 14.47h1.846c.176 0 .32.172.32.385v5.748c0 .213-.144.386-.32.386H3.69c-.177 0-.32-.173-.32-.386v-5.748c0-.213.143-.386.32-.386zm1.526.77H4.01v4.978h1.206V15.24zM16.345 2.92h1.846c.177 0 .32.172.32.385v17.298c0 .213-.143.386-.32.386h-1.846c-.176 0-.32-.173-.32-.386V3.305c0-.213.144-.386.32-.386zm1.526.77h-1.205v16.528h1.205V3.69zM12.127 7.84h1.846c.176 0 .32.173.32.386v12.377c0 .213-.144.386-.32.386h-1.846c-.177 0-.32-.173-.32-.386V8.226c0-.213.143-.385.32-.385zm1.526.772h-1.206v11.606h1.206V8.612z"/>
        </g>
    </g>
</svg>
