<svg xmlns="http://www.w3.org/2000/svg" width="19" height="19" viewBox="0 0 19 19">
    <g fill="none" fill-rule="evenodd">
        <path d="M-3-3h25v25H-3z"/>
        <g fill="#FFF" fill-rule="nonzero">
            <path d="M17.513 19H1.487C.667 19 0 18.333 0 17.513V2.675c0-.82.667-1.487 1.487-1.487h16.026c.82 0 1.487.667 1.487 1.487v14.838c0 .82-.667 1.487-1.487 1.487zM1.487 2.375a.3.3 0 0 0-.3.3v14.838a.3.3 0 0 0 .3.3h16.026a.3.3 0 0 0 .3-.3V2.675a.3.3 0 0 0-.3-.3H1.487zm16.92 3.563H.593a.594.594 0 0 1 0-1.188h17.812a.594.594 0 1 1 0 1.188zM3.561 3.563a.594.594 0 0 1-.593-.594V.594a.594.594 0 0 1 1.187 0v2.375a.594.594 0 0 1-.593.594zm11.876 0a.594.594 0 0 1-.594-.594V.594a.594.594 0 1 1 1.187 0v2.375a.594.594 0 0 1-.593.594z"/>
            <circle cx="3.563" cy="10.688" r="1"/>
            <circle cx="3.563" cy="13.063" r="1"/>
            <circle cx="3.563" cy="15.438" r="1"/>
            <circle cx="13.063" cy="8.313" r="1"/>
            <circle cx="13.063" cy="10.688" r="1"/>
            <circle cx="13.063" cy="13.063" r="1"/>
            <circle cx="13.063" cy="15.438" r="1"/>
            <circle cx="15.438" cy="8.313" r="1"/>
            <circle cx="15.438" cy="10.688" r="1"/>
            <circle cx="15.438" cy="13.063" r="1"/>
            <circle cx="8.313" cy="8.313" r="1"/>
            <circle cx="8.313" cy="10.688" r="1"/>
            <circle cx="8.313" cy="13.063" r="1"/>
            <circle cx="8.313" cy="15.438" r="1"/>
            <circle cx="5.938" cy="8.313" r="1"/>
            <circle cx="5.938" cy="10.688" r="1"/>
            <circle cx="5.938" cy="13.063" r="1"/>
            <circle cx="5.938" cy="15.438" r="1"/>
            <circle cx="10.688" cy="8.313" r="1"/>
            <circle cx="10.688" cy="10.688" r="1"/>
            <circle cx="10.688" cy="13.063" r="1"/>
            <circle cx="10.688" cy="15.438" r="1"/>
        </g>
    </g>
</svg>
