<svg xmlns="http://www.w3.org/2000/svg" width="23" height="23" viewBox="0 0 23 23">
    <g fill="none" fill-rule="evenodd">
        <path d="M-1-1h25v25H-1z"/>
        <g fill="#FFF" fill-rule="nonzero">
            <path d="M9.99 13.694a.913.913 0 0 0 .911-.911V10.96a.913.913 0 0 0-.911-.912H3.61a.913.913 0 0 0-.912.912v1.823c0 .502.409.911.911.911h6.38zM3.61 10.96h6.38v1.823H3.61V10.96zM4.104 15.022H3.65a.455.455 0 1 0 0 .911h.455a.455.455 0 1 0 0-.911zM7.294 15.022H6.84a.455.455 0 1 0 0 .911h.455a.455.455 0 1 0 0-.911zM10.484 15.022h-.455a.455.455 0 1 0 0 .911h.455a.455.455 0 1 0 0-.911zM3.61 18.252h.455a.455.455 0 1 0 0-.912H3.61a.455.455 0 1 0 0 .912zM7.255 17.34H6.8a.455.455 0 1 0 0 .912h.456a.455.455 0 1 0 0-.912zM10.484 17.3h-.455a.455.455 0 1 0 0 .912h.455a.455.455 0 1 0 0-.912zM4.104 19.58H3.65a.455.455 0 1 0 0 .91h.455a.455.455 0 1 0 0-.91zM7.255 19.619H6.8a.455.455 0 1 0 0 .911h.456a.455.455 0 1 0 0-.911zM10.445 19.619H9.99a.455.455 0 1 0 0 .911h.455a.455.455 0 1 0 0-.911zM14.547 10.048h3.646a.455.455 0 1 0 0-.911h-3.646a.455.455 0 1 0 0 .911zM14.547 7.314h3.646a.455.455 0 1 0 0-.911h-3.646a.455.455 0 1 0 0 .911zM14.547 12.783h3.646a.455.455 0 1 0 0-.912h-3.646a.455.455 0 1 0 0 .912z"/>
            <path d="M21.24 2.692H17.698v-.665a.665.665 0 0 0-.664-.664H15.85A1.33 1.33 0 0 0 14.6.478c-.577 0-1.07.37-1.253.885h-1.182a.665.665 0 0 0-.664.664v.665H7.958a.887.887 0 0 0-.885.885v4.427h-4.87A1.33 1.33 0 0 0 .875 9.332v11.51a1.33 1.33 0 0 0 1.328 1.329H21.24a.887.887 0 0 0 .885-.886V3.577a.887.887 0 0 0-.885-.885zm-8.855-.444h1.771v-.442a.443.443 0 0 1 .886 0v.442h1.77v1.329h-4.427V2.248zM11.5 3.577v.221c0 .366.298.664.664.664h4.87a.665.665 0 0 0 .664-.664v-.221h1.77v15.495a.443.443 0 0 1-.442.443h-6.64V9.332a1.33 1.33 0 0 0-1.329-1.328H9.73V3.577H11.5zm-3.542 0h.886v4.427h-.886V3.577zM1.76 20.843V9.333c0-.245.199-.443.443-.443h8.854c.245 0 .443.198.443.442v11.51a.443.443 0 0 1-.443.443H2.203a.443.443 0 0 1-.443-.442zm19.48.442h-8.936c.05-.139.081-.286.081-.442V20.4h6.641a1.33 1.33 0 0 0 1.328-1.328V3.577h.886v17.708z"/>
        </g>
    </g>
</svg>
