<svg xmlns="http://www.w3.org/2000/svg" width="43" height="43" viewBox="0 0 43 43">
    <g fill="none" fill-rule="evenodd">
        <circle cx="21.5" cy="21.5" r="21.5" fill="#E7ECF2"/>
        <path fill="#8C8C8C" fill-rule="nonzero" d="M22.624 20.81l-.026.025c.026.105.052.21.052.314a1.11 1.11 0 0 1-1.115 1.122 1.11 1.11 0 0 1-1.115-1.122c0-.079 0-.157.026-.261l-4.383-4.36a.507.507 0 0 1 0-.732.499.499 0 0 1 .726 0l4.279 4.308c.13-.052.26-.078.415-.078.13 0 .26.026.363.078l3.112-3.133a.499.499 0 0 1 .726 0 .507.507 0 0 1 0 .731l-3.06 3.107zm6.794 2.219c-1.4 4.438-6.12 6.919-10.528 5.535-4.409-1.41-6.872-6.162-5.498-10.6 1.4-4.44 6.12-6.92 10.529-5.536a8.455 8.455 0 0 1 5.004 4.308l-1.115.496 2.438 1.149L31 15.77l-1.141.522a9.332 9.332 0 0 0-5.601-4.856c-4.953-1.567-10.27 1.227-11.825 6.214-1.556 4.987 1.218 10.34 6.171 11.906a9.67 9.67 0 0 0 2.827.444 9.436 9.436 0 0 0 8.998-6.658l.234-.862-1.011-.209c-.078.261-.156.523-.234.758z"/>
    </g>
</svg>
