<svg xmlns="http://www.w3.org/2000/svg" width="43" height="43" viewBox="0 0 43 43">
    <g fill="#FB432A" fill-rule="evenodd">
        <circle cx="21.5" cy="21.5" r="21.5" opacity=".182"/>
        <path d="M27 21.298A5.707 5.707 0 0 1 21.298 27 5.665 5.665 0 0 1 18 25.94L25.94 18A5.665 5.665 0 0 1 27 21.298m-11 .404A5.707 5.707 0 0 1 21.702 16c1.23 0 2.366.395 3.298 1.06L17.06 25A5.665 5.665 0 0 1 16 21.702M31.72 11.28a.953.953 0 0 0-1.35 0l-4.193 4.193a7.59 7.59 0 0 0-4.677-1.61 7.637 7.637 0 0 0-7.636 7.637 7.59 7.59 0 0 0 1.61 4.677l-4.194 4.194a.953.953 0 1 0 1.35 1.35l4.193-4.194a7.593 7.593 0 0 0 4.677 1.61 7.637 7.637 0 0 0 7.636-7.637 7.593 7.593 0 0 0-1.61-4.677l4.194-4.193a.953.953 0 0 0 0-1.35"/>
    </g>
</svg>
