<svg xmlns="http://www.w3.org/2000/svg" width="22" height="18" viewBox="0 0 22 18">
    <g fill="none" fill-rule="evenodd">
        <path d="M-2-4h25v25H-2z"/>
        <g fill="#FFF" fill-rule="nonzero">
            <path d="M7.27 8.947A4.474 4.474 0 1 0 7.27 0a4.474 4.474 0 0 0 0 8.947zm0-8.052a3.579 3.579 0 1 1 0 7.158 3.579 3.579 0 0 1 0-7.158zM6.99 9.507C3.136 9.507 0 12.675 0 16.57v.883a.44.44 0 0 0 .437.442h13.106a.44.44 0 0 0 .437-.442v-.883c0-3.895-3.135-7.063-6.99-7.063zm6.116 7.505H.874v-.442c0-3.408 2.743-6.18 6.116-6.18 3.373 0 6.116 2.772 6.116 6.18v.442z"/>
            <path d="M15.378 8.947a3.635 3.635 0 1 0 0-7.27 3.635 3.635 0 0 0 0 7.27zm0-6.383a2.748 2.748 0 1 1 0 5.497 2.748 2.748 0 0 1 0-5.497zM15.633 9.507a5.606 5.606 0 0 0-3.14.955.43.43 0 0 0 .053.743.434.434 0 0 0 .43-.03 4.77 4.77 0 0 1 4.889-.254 4.73 4.73 0 0 1 2.52 4.178v.258h-5.171a.431.431 0 1 0 0 .86h5.604a.431.431 0 0 0 .432-.43v-.688c-.003-3.087-2.516-5.589-5.617-5.592z"/>
        </g>
    </g>
</svg>
