<svg xmlns="http://www.w3.org/2000/svg" width="22" height="23" viewBox="0 0 22 23">
    <g fill="none" fill-rule="evenodd">
        <path d="M-2 0h25v25H-2z"/>
        <g fill="#FFF">
            <path d="M10.633.269v22.258h.734V.269zM0 11.027v.742h6.427v-.742z"/>
            <path d="M9.727 11.026v.742H22v-.742z"/>
            <path fill-rule="nonzero" d="M11 1.382A9.764 9.764 0 0 0 5.255 3.25c.19.159.347.356.453.584A9.026 9.026 0 0 1 11 2.124c2.399 0 4.54.98 6.173 2.504l-6.432 6.508.518.525 6.742-6.821.26-.262-.26-.263A9.818 9.818 0 0 0 11 1.382zM2.948 5.583A10.04 10.04 0 0 0 1.1 11.398c0 5.528 4.437 10.017 9.9 10.017s9.9-4.49 9.9-10.017h-.733c0 5.127-4.1 9.275-9.167 9.275s-9.167-4.148-9.167-9.275c0-1.998.629-3.842 1.692-5.355a1.665 1.665 0 0 1-.577-.46z"/>
            <path fill-rule="nonzero" d="M10.88 8.063a3.267 3.267 0 0 0-1.629.505 3.273 3.273 0 0 0-1.096 1.17c.263.012.508.09.725.214.195-.295.447-.556.76-.755a2.541 2.541 0 0 1 3.248.44l.538-.504a3.28 3.28 0 0 0-2.546-1.07zm2.688 3.335c0 1.251-.876 2.32-2.091 2.552a2.54 2.54 0 0 1-2.594-1.105 1.61 1.61 0 0 1-.718.214c.691 1.208 2.058 1.885 3.448 1.62 1.557-.297 2.688-1.678 2.688-3.28h-.733z"/>
            <path fill-rule="nonzero" d="M10.758 4.725A6.528 6.528 0 0 0 7.5 5.737c-2.689 1.701-3.802 5.105-2.647 8.093 1.155 2.988 4.254 4.724 7.37 4.13a6.533 6.533 0 0 0 2.148-.822 1.68 1.68 0 0 1-.46-.59 5.818 5.818 0 0 1-1.823.683c-2.775.53-5.524-1.012-6.552-3.672-1.028-2.66-.04-5.678 2.353-7.193a5.813 5.813 0 0 1 7.423 1.005l.538-.502a6.562 6.562 0 0 0-5.093-2.144zm6.11 6.673c0 1.065-.28 2.07-.772 2.944.226.107.422.266.579.46.59-1.003.926-2.169.926-3.404h-.733zM4.217 3.421c-.605 0-1.1.502-1.1 1.113a1.11 1.11 0 0 0 1.1 1.113c.604 0 1.1-.502 1.1-1.113a1.11 1.11 0 0 0-1.1-1.113z"/>
            <path fill-rule="nonzero" d="M8.077 10.285c-.605 0-1.1.502-1.1 1.113a1.11 1.11 0 0 0 1.1 1.113c.604 0 1.1-.501 1.1-1.113a1.11 1.11 0 0 0-1.1-1.113zM15.403 14.736c-.604 0-1.1.501-1.1 1.113a1.11 1.11 0 0 0 1.1 1.112c.604 0 1.1-.501 1.1-1.112a1.11 1.11 0 0 0-1.1-1.113z"/>
        </g>
    </g>
</svg>
