<svg xmlns="http://www.w3.org/2000/svg" width="20" height="20" viewBox="0 0 20 20">
    <path fill="#969696" fill-rule="evenodd" stroke="#FFF" d="M19.04 17.033l-3.803-3.803a7.593 7.593 0 0 0 1.375-4.424 7.667 7.667 0 0 0-.616-3.033 7.802 7.802 0 0 0-1.663-2.494 7.803 7.803 0 0 0-2.494-1.664A7.671 7.671 0 0 0 8.806 1a7.67 7.67 0 0 0-3.033.615A7.803 7.803 0 0 0 3.28 3.28a7.804 7.804 0 0 0-1.664 2.494A7.67 7.67 0 0 0 1 8.806a7.67 7.67 0 0 0 .615 3.032c.41.965.965 1.796 1.664 2.495a7.805 7.805 0 0 0 2.494 1.663 7.67 7.67 0 0 0 3.033.616 7.594 7.594 0 0 0 4.424-1.375l3.803 3.791c.266.281.598.422.998.422.384 0 .717-.14.998-.422.28-.28.421-.613.421-.997 0-.392-.137-.725-.41-.998zm-6.725-4.718c-.972.972-2.142 1.458-3.51 1.458-1.367 0-2.536-.486-3.508-1.458s-1.458-2.142-1.458-3.51c0-1.367.486-2.537 1.458-3.508.972-.973 2.141-1.459 3.509-1.459 1.367 0 2.537.487 3.51 1.459.971.971 1.457 2.141 1.457 3.509 0 1.367-.486 2.537-1.458 3.509z" opacity=".6"/>
</svg>
